/* XPM */
static char *b556dbead3f84ef086c0e810d230a635vifeosijYZ7E8L7z[] = {
/* columns rows colors chars-per-pixel */
"64 64 7 1 ",
"  c None",
". c #666118",
"X c #A89F2A",
"o c #D5CA56",
"O c #DAD060",
"+ c #E6DC76",
"@ c #EFE9A7",
/* pixels */
"..XXooooooXXooooooooooooooXXooooooXXooooooooooooooXXooooooXXoo..",
"..XXooooooXXooooooooooooooXXooooooXXooooooooooooooXXooooooXXoo..",
"..XXooooooXXooooooooooooooXXooooooXXooooooooooooooXXooooooXXoo..",
"..XXooooooXXooooooooooooooXXooooooXXooooooooooooooXXooooooXXoo..",
"..XXooXXooXXooooooooooooooXXooXXooXXooooooooooooooXXooXXooXXoo..",
"..XXooXXooXXooooooooooooooXXooXXooXXooooooooooooooXXooXXooXXoo..",
"..XXooooooXXooooooXXooooooXXooooooXXooooooXXooooooXXooooooXXoo..",
"..XXooooooXXooooooXXooooooXXooooooXXooooooXXooooooXXooooooXXoo..",
"..XXooooooXXooooXXXXXXooooXXooooooXXooooXXXXXXooooXXooooooXXoo..",
"..XXooooooXXooooXXXXXXooooXXooooooXXooooXXXXXXooooXXooooooXXoo..",
"..XXooXXooXXooXXXXooXXXXooXXooXXooXXooXXXXooXXXXooXXooXXooXXoo..",
"..XXooXXooXXooXXXXooXXXXooXXooXXooXXooXXXXooXXXXooXXooXXooXXoo..",
"..XXooooooXXooXXooooooXXooXXooooooXXooXXooooooXXooXXooooooXXoo..",
"..XXooooooXXooXXooooooXXooXXooooooXXooXXooooooXXooXXooooooXXoo..",
"..XXooooooXXooooooXXooooooXXooooooXXooooooXXooooooXXooooooXXoo..",
"..XXooooooXXooooooXXooooooXXooooooXXooooooXXooooooXXooooooXXoo..",
"..XXooXXooXXooooXXXXXXooooXXooXXooXXooooXXXXXXooooXXooXXooXXoo..",
"..XXooXXooXXooooXXXXXXooooXXooXXooXXooooXXXXXXooooXXooXXooXXoo..",
"..XXooooooXXooXXXXXXXXXXooXXooooooXXooXXXXXXXXXXooXXooooooXXoo..",
"..XXooooooXXooXXXXXXXXXXooXXooooooXXooXXXXXXXXXXooXXooooooXXoo..",
"..XXooooooXXooXXXXXXXXXXooXXooooooXXooXXXXXXXXXXooXXooooooXXoo..",
"..XXooooooXXooXXXXXXXXXXooXXooooooXXooXXXXXXXXXXooXXooooooXXoo..",
"..XXooXXooXXooXXXXooXXXXooXXooXXooXXooXXXXooXXXXooXXooXXooXXoo..",
"..XXooXXooXXooXXXXooXXXXooXXooXXooXXooXXXXooXXXXooXXooXXooXXoo..",
"..XXooooooXXooXXooooooXXooXXooooooXXooXXooooooXXooXXooooooXXoo..",
"..XXooooooXXooXXooooooXXooXXooooooXXooXXooooooXXooXXooooooXXoo..",
"..XXooooooXXooooooooooooooXXooooooXXooooooooooooooXXooooooXXoo..",
"..XXooooooXXooooooooooooooXXooooooXXooooooooooooooXXooooooXXoo..",
"..XXooXXooXXooooooooooooooXXooXXooXXooooooooooooooXXooXXooXXoo..",
"..XXooXXooXXooooooooooooooXXooXXooXXooooooooooooooXXooXXooXXoo..",
"..XXooooooXXooooooooooooooXXooooooXXooooooooooooooXXooooooXXoo..",
"..XXooooooXXooooooooooooooXXooooooXXooooooooooooooXXooooooXXoo..",
"..XXooooooXXooooooooooooooXXooooooXXooooooooooooooXXooooooXXoo..",
"..XXooooooXXooooooooooooooXXooooooXXooooooooooooooXXooooooXXoo..",
"..XXooXXooXXooooooooooooooXXooXXooXXooooooooooooooXXooXXooXXoo..",
"..XXooXXooXXooooooooooooooXXooXXooXXooooooooooooooXXooXXooXXoo..",
"..XXooooooXXooooooXXooooooXXooooooXXooooooXXooooooXXooooooXXoo..",
"..XXooooooXXooooooXXooooooXXooooooXXooooooXXooooooXXooooooXXoo..",
"..XXooooooXXooooXXXXXXooooXXooooooXXooooXXXXXXooooXXooooooXXoo..",
"..XXooooooXXooooXXXXXXooooXXooooooXXooooXXXXXXooooXXooooooXXoo..",
"..XXooXXooXXooXXXXooXXXXooXXooXXooXXooXXXXooXXXXooXXooXXooXXoo..",
"..XXooXXooXXooXXXXooXXXXooXXooXXooXXooXXXXooXXXXooXXooXXooXXoo..",
"..XXooooooXXooXXooooooXXooXXooooooXXooXXooooooXXooXXooooooXXoo..",
"..XXooooooXXooXXooooooXXooXXooooooXXooXXooooooXXooXXooooooXXoo..",
"..XXooooooXXooooooXXooooooXXooooooXXooooooXXooooooXXooooooXXoo..",
"..XXooooooXXooooooXXooooooXXooooooXXooooooXXooooooXXooooooXXoo..",
"..XXooXXooXXooooXXXXXXooooXXooXXooXXooooXXXXXXooooXXooXXooXXoo..",
"..XXooXXooXXooooXXXXXXooooXXooXXooXXooooXXXXXXooooXXooXXooXXoo..",
"..XXooooooXXooXXXXXXXXXXooXXooooooXXooXXXXXXXXXXooXXooooooXXoo..",
"..XXooooooXXooXXXXXXXXXXooXXooooooXXooXXXXXXXXXXooXXooooooXXoo..",
"..XXooooooXXooXXXXXXXXXXooXXooooooXXooXXXXXXXXXXooXXooooooXXoo..",
"..XXooooooXXooXXXXXXXXXXooXXooooooXXooXXXXXXXXXXooXXooooooXXoo..",
"..XXooXXooXXooXXXXooXXXXooXXooXXooXXooXXXXooXXXXooXXooXXooXXoo..",
"..XXooXXooXXooXXXXooXXXXooXXooXXooXXooXXXXooXXXXooXXooXXooXXoo..",
"@@@@@@@@@@@@@@@@@@@@@@@@@@@@@@@@@@@@@@@@@@@@@@@@@@@@@@@@@@@@@@@@",
"@@@@@@@@@@@@@@@@@@@@@@@@@@@@@@@@@@@@@@@@@@@@@@@@@@@@@@@@@@@@@@@@",
"@@@@@@@@@@@@@@@@@@@@@@@@@@@@@@@@@@@@@@@@@@@@@@@@@@@@@@@@@@@@@@@@",
"@@@@@@@@@@@@@@@@@@@@@@@@@@@@@@@@@@@@@@@@@@@@@@@@@@@@@@@@@@@@@@@@",
"++++++++++++++++++++++++++++++++++++++++++++++++++++++++++++++++",
"++++++++++++++++++++++++++++++++++++++++++++++++++++++++++++++++",
"++OOOOOOOOOOOOOOOOOOOOOOOOOOOOOOOOOOOOOOOOOOOOOOOOOOOOOOOOOOOO++",
"++OOOOOOOOOOOOOOOOOOOOOOOOOOOOOOOOOOOOOOOOOOOOOOOOOOOOOOOOOOOO++",
"++++++++++++++++++++++++++++++++++++++++++++++++++++++++++++++++",
"++++++++++++++++++++++++++++++++++++++++++++++++++++++++++++++++"
};
