/* XPM */
static char *fc220d87c19d42c2e6bf3115e700972cgfz7ttZMXdh3i6MR[] = {
/* columns rows colors chars-per-pixel */
"32 32 14 1 ",
"  c #505050",
". c #98D8D8",
"X c #00A8A8",
"o c #70C8C8",
"O c #00A0A0",
"+ c #20B0B0",
"@ c #48C0C0",
"# c #009898",
"$ c #008888",
"% c #008080",
"& c #007878",
"* c #007070",
"= c #006868",
"- c white",
/* pixels */
"                                ",
".XoO++@@@@@@@@@@++++++++XXXXXoOX",
".#.$XX++++@@@@@@@@@@@@@++++++.$+",
".$##OO@@@@@@@@@@@@@@@@@@@@@@@+++",
".$$$##$###################+@@@@@",
".%+O$#&#XXXXX++++++@@@@@@@.@@oO@",
"o&@$$$&###XXXXXX+++++++@@@.@@.$@",
"o&&&$$&$###XXXXXXX++++++++.@@@@@",
"o&&&%%&$$####XXXXXXX++++++.++@@@",
"@&#$&%&$$$#####XXXXXXXX+++.++oO+",
"@&O&&&&%$$$$#####XXXXXXXX+.++.$+",
"@***&&&%%$$$$######XXXXXXX.+++++",
"@**&&&&&%%%$$$#######XXXXX.XXX++",
"@*#%&&&&&%%%$$$$#######XXXoXXoOX",
"@=#&*&&&&&%%%$$$$########XoXX.$X",
"@****&&&&&&%%%$$$$$#######oXXXXX",
"+*=****&&&&&%%%%$$$$######o##XXO",
"+&$$***&&&&&&%%%%$$$$$####o##oOO",
"+&#&=***&&&&&&%%%%$$$$$###@##.$#",
"+&**=***&&&&&&&&%%%$$$$$$#@#####",
"+&&**=***&&&&&&&&%%%%$$$$$@#####",
"+&#$*==***&&&&&&&&%%%%$$$$@$#@O#",
"+&#&**=****&&&&&&&&%%%%$$$+$$o$#",
"+%%%**==****&&&&&&&&%%%%$$+$$$#$",
"+%&&&*===***&&&&&&&&&%%%%%+$$$$$",
"+%#$&***=****&&&&&&&&&%%%%+$$+O$",
"+%#&&&**==****&&&&&&&&&%%%O%$@%$",
"+%%%&&&$%%%%$$$$$$$$$$$##OO%%%%$",
"+%%&&&***==****&&&&&&&&&&%%%%%%$",
"+$#$&&&***==****&&&&&&&&&&%%%O$%",
"+$+&&&&****==****&&&&&&&&&&%%+%%",
"+$%%&&&&***==*****&&&&&&&&&&%%%%"
};
