/* XPM */
static char *fc220d87c19d42c2e6bf3115e700972cgfz7ttZMXdh3i6MR[] = {
/* columns rows colors chars-per-pixel */
"64 64 14 1 ",
"  c #505050",
". c #98D8D8",
"X c #00A8A8",
"o c #70C8C8",
"O c #00A0A0",
"+ c #20B0B0",
"@ c #48C0C0",
"# c #009898",
"$ c #008888",
"% c #008080",
"& c #007878",
"* c #007070",
"= c #006868",
"- c white",
/* pixels */
"..XXooOO++@@@@O@@@@@+o+++@@@@@@@++++@+++++++++++XXXXOXXXXXooOOXX",
"..XooooOO+++@@@@@@@@@@@@@@@@@@@@++++++++++++++++XXXXXXXXXXooOOXX",
"..XXooOO++++@@@@@++@@@@@@@@@@@@@++++OooO++++@@@++++XXXXXXXXXXooO",
"..XXooOO++++@@@@@@@@@@@@@@@@@@@@+++@@+++++++++++XXXXX++XXXooOOXX",
"..##..$$XXXX++++++++@@@@@@@@@@@@@@@@@@@@@@@@@@++++++++++++..$$++",
"..##..$$XXXX++++++++@@@@@@@@@@@@@@@@@@@@@@@@@@++++++++++++..$$++",
"..$$####OOOO@@@@@@@@@@@@@@@@@@@@@@@@@@@@@@@@@@@@@@@@@@@@@@++++++",
"..$$####OOOO@@@@@@@@@@@@@@@@@@@@@@@@@@@@@@@@@@@@@@@@@@@@@@++++++",
"..$$$$$$####$$######################################++@@@@@@@@@@",
"..$$$$$$####$$######################################++@@@@@@@@@@",
"..%%++OO$$##&&##XXXXXXXXXX++++++++++++@@@@@@@@@@@@@@..@@@@ooOO@@",
"..%%++OO$$##&&##XXXXXXXXXX++++++++++++@@@@@@@@@@@@@@..@@@@ooOO@@",
"oo&&@@$$$$$$&&######XXXXXXXXXXXX++++++++++++++@@@@@@..@@@@..$$@@",
"oo&&@@$$$$$$&&######XXXXXXXXXXXX++++++++++++++@@@@@@..@@@@..$$@@",
"oo&&&&&&$$$$&&$$######XXXXXXXXXXXXXX++++++++++++++++..@@@@@@@@@@",
"oo&&&&&&$$$$&&$$######XXXXXXXXXXXXXX++++++++++++++++..@@@@@@@@@@",
"oo&&&&&&%%%%&&$$$$########XXXXXXXXXXXXXX++++++++++++..++++@@@@@@",
"oo&&&&&&%%%%&&$$$$########XXXXXXXXXXXXXX++++++++++++..++++@@@@@@",
"@@&&##$$&&%%&&$$$$$$##########XXXXXXXXXXXXXXXX++++++..++++ooOO++",
"@@&&##$$&&%%&&$$$$$$##########XXXXXXXXXXXXXXXX++++++..++++ooOO++",
"@@&&OO&&&&&&&&%%$$$$$$$$##########XXXXXXXXXXXXXXXX++..++++..$$++",
"@@&&OO&&&&&&&&%%$$$$$$$$##########XXXXXXXXXXXXXXXX++..++++..$$++",
"@@******&&&&&&%%%%$$$$$$$$############XXXXXXXXXXXXXX..++++++++++",
"@@******&&&&&&%%%%$$$$$$$$############XXXXXXXXXXXXXX..++++++++++",
"@@****&&&&&&&&&&%%%%%%$$$$$$##############XXXXXXXXXX..XXXXXX++++",
"@@****&&&&&&&&&&%%%%%%$$$$$$##############XXXXXXXXXX..XXXXXX++++",
"@@**##%%&&&&&&&&&&%%%%%%$$$$$$$$##############XXXXXXooXXXXooOOXX",
"@@**##%%&&&&&&&&&&%%%%%%$$$$$$$$##############XXXXXXooXXXXooOOXX",
"@@==##&&**&&&&&&&&&&%%%%%%$$$$$$$$################XXooXXXX..$$XX",
"@@==##&&**&&&&&&&&&&%%%%%%$$$$$$$$################XXooXXXX..$$XX",
"@@********&&&&&&&&&&&&%%%%%%$$$$$$$$$$##############ooXXXXXXXXXX",
"@@********&&&&&&&&&&&&%%%%%%$$$$$$$$$$##############ooXXXXXXXXXX",
"++**==********&&&&&&&&&&%%%%%%%%$$$$$$$$############oo####XXXXOO",
"++**==********&&&&&&&&&&%%%%%%%%$$$$$$$$############oo####XXXXOO",
"++&&$$$$******&&&&&&&&&&&&%%%%%%%%$$$$$$$$$$########oo####ooOOOO",
"++&&$$$$******&&&&&&&&&&&&%%%%%%%%$$$$$$$$$$########oo####ooOOOO",
"++&&##&&==******&&&&&&&&&&&&%%%%%%%%$$$$$$$$$$######@@####..$$##",
"++&&##&&==******&&&&&&&&&&&&%%%%%%%%$$$$$$$$$$######@@####..$$##",
"++&&****==******&&&&&&&&&&&&&&&&%%%%%%$$$$$$$$$$$$##@@##########",
"++&&****==******&&&&&&&&&&&&&&&&%%%%%%$$$$$$$$$$$$##@@##########",
"++&&&&****==******&&&&&&&&&&&&&&&&%%%%%%%%$$$$$$$$$$@@##########",
"++&&&&****==******&&&&&&&&&&&&&&&&%%%%%%%%$$$$$$$$$$@@##########",
"++&&##$$**====******&&&&&&&&&&&&&&&&%%%%%%%%$$$$$$$$@@$$##@@OO##",
"++&&##$$**====******&&&&&&&&&&&&&&&&%%%%%%%%$$$$$$$$@@$$##@@OO##",
"++&&##&&****==********&&&&&&&&&&&&&&&&%%%%%%%%$$$$$$++$$$$oo$$##",
"++&&##&&****==********&&&&&&&&&&&&&&&&%%%%%%%%$$$$$$++$$$$oo$$##",
"++%%%%%%****====********&&&&&&&&&&&&&&&&%%%%%%%%$$$$++$$$$$$##$$",
"++%%%%%%****====********&&&&&&&&&&&&&&&&%%%%%%%%$$$$++$$$$$$##$$",
"++%%&&&&&&**======******&&&&&&&&&&&&&&&&&&%%%%%%%%%%++$$$$$$$$$$",
"++%%&&&&&&**======******&&&&&&&&&&&&&&&&&&%%%%%%%%%%++$$$$$$$$$$",
"++%%##$$&&******==********&&&&&&&&&&&&&&&&&&%%%%%%%%++$$$$++OO$$",
"++%%##$$&&******==********&&&&&&&&&&&&&&&&&&%%%%%%%%++$$$$++OO$$",
"++%%##&&&&&&****====********&&&&&&&&&&&&&&&&&&%%%%%%OO%%$$@@%%$$",
"++%%##&&&&&&****====********&&&&&&&&&&&&&&&&&&%%%%%%OO%%$$@@%%$$",
"++%%%%%%&&&&&&$$%%%%%%%%$$$$$$$$$$$$$$$$$$$$$$####OOOO%%%%%%%%$$",
"++%%%%%%&&&&&&$$%%%%%%%%$$$$$$$$$$$$$$$$$$$$$$####OOOO%%%%%%%%$$",
"++%%%%&&&&&&******====********&&&&&&&&&&&&&&&&&&&&%%%%%%%%%%%%$$",
"++%%%%&&&&&&******====********&&&&&&&&&&&&&&&&&&&&%%%%%%%%%%%%$$",
"++$$##$$&&&&&&******====********&&&&&&&&&&&&&&&&&&&&%%%%%%OO$$%%",
"++$$##$$&&&&&&******====********&&&&&&&&&&&&&&&&&&&&%%%%%%OO$$%%",
"++$$++&&&&&&&&********====********&&&&&&&&&&&&&&&&&&&&%%%%++%%%%",
"++$$++&&&&&&&&********====********&&&&&&&&&&&&&&&&&&&&%%%%++%%%%",
"++$$%%%%&&&&&&&&******====**********&&&&&&&&&&&&&&&&&&&&%%%%%%%%",
"++$$%%%%&&&&&&&&******====**********&&&&&&&&&&&&&&&&&&&&%%%%%%%%"
};
