/* XPM */
static char *_b0d73e3fd194fe480e6bd0f02c86dd3vl7SObgwmMz2Q9a4[] = {
/* columns rows colors chars-per-pixel */
"64 64 10 1 ",
"  c #300000",
". c #600000",
"X c #700000",
"o c #800000",
"O c #680000",
"+ c #480000",
"@ c #500000",
"# c #400000",
"$ c #280000",
"% c white",
/* pixels */
"    ..XXooooooooooooooooooooXX..    ..XXooooooooooooooooooooXX..",
"    ..XXooooooooooooooooooooXX..    ..XXooooooooooooooooooooXX..",
"    XXOOXXOOXXOOOOOOOOOOOOOOOOOO    XXOOXXOOXXOOOOOOOOOOOOOOOOOO",
"    XXOOXXOOXXOOOOOOOOOOOOOOOOOO    XXOOXXOOXXOOOOOOOOOOOOOOOOOO",
"    OOOOOOXXOOOOXXOOOOOOOOOO....    OOOOOOXXOOOOXXOOOOOOOOOO....",
"    OOOOOOXXOOOOXXOOOOOOOOOO....    OOOOOOXXOOOOXXOOOOOOOOOO....",
"    OOXXOOOO....OOOOOOOO..XXOO..    OOXXOOOO....OOOOOOOO..XXOO..",
"    OOXXOOOO....OOOOOOOO..XXOO..    OOXXOOOO....OOOOOOOO..XXOO..",
"    OO................OOXX..OO..    OO................OOXX..OO..",
"    OO................OOXX..OO..    OO................OOXX..OO..",
"    ..++++@@@@@@++++@@@@@@@@++++    ..++@@@@@@@@++++@@@@@@@@++++",
"    ..++++@@@@@@++++@@@@@@@@++++    ..++@@@@@@@@++++@@@@@@@@++++",
"    ++++++++++##++++++++++++++##    ++++++++++##++++++++++++++##",
"    ++++++++++##++++++++++++++##    ++++++++++##++++++++++++++##",
"                                                                ",
"                                                                ",
"################################################################",
"################################################################",
"OOOOOOOOOOOOOO  ##  XXXXXXXXXXXXOOOOOOOOOOOOOO  ##  XXXXXXXXXXOO",
"OOOOOOOOOOOOOO  ##  XXXXXXXXXXXXOOOOOOOOOOOOOO  ##  XXXXXXXXXXOO",
"OOOOOOOOOOOO..  ##  OOOOXXOOOOOOOOOOOOOOOOOO..  ##  OOOOXXOOOOOO",
"OOOOOOOOOOOO..  ##  OOOOXXOOOOOOOOOOOOOOOOOO..  ##  OOOOXXOOOOOO",
"....OOOO......  ##  OOXXOO..........OOOO......  ##  OOXXOO......",
"....OOOO......  ##  OOXXOO..........OOOO......  ##  OOXXOO......",
"XX..OOOOOO....  ##  OO..OOOOOOXXXX..OOOOOO....  ##  OOOOOOOOXXXX",
"XX..OOOOOO....  ##  OO..OOOOOOXXXX..OOOOOO....  ##  OOOOOOOOXXXX",
"..........OO..  ##  ..@@....OOOO..........OO..  ##  OOOO....OO..",
"..........OO..  ##  ..@@....OOOO..........OO..  ##  OOOO....OO..",
"..++++++++##++  ##  ##@@##++++++++++++++++##++  ##  ##++##++++..",
"..++++++++##++  ##  ##@@##++++++++++++++++##++  ##  ##++##++++..",
"++############  ##  ####++####++++############  ##  ####++##++++",
"++############  ##  ####++####++++############  ##  ####++##++++",
"                                                              $$",
"                                                              $$",
"################################################################",
"################################################################",
"    XXXXXXXXXXXXOOOOXXXXXXXXXXXX  $$XXXXXXXXXXXXOOOOXXXXXXXXXXXX",
"    XXXXXXXXXXXXOOOOXXXXXXXXXXXX  $$XXXXXXXXXXXXOOOOXXXXXXXXXXXX",
"    OOXXOOXXOO..OOOOXXXXXXOOOOOO  $$OOXXOOXXOO..OOOOXXXXXXOOOOOO",
"    OOXXOOXXOO..OOOOXXXXXXOOOOOO  $$OOXXOOXXOO..OOOOXXXXXXOOOOOO",
"    OOXXOOOO....OOOOOOOO..XXOO..  $$OOXXOOOO....OOOOOOOO..XXOO..",
"    OOXXOOOO....OOOOOOOO..XXOO..  $$OOXXOOOO....OOOOOOOO..XXOO..",
"    OO................OOXX..OO..  $$OO................OOXX..OO..",
"    OO................OOXX..OO..  $$OO................OOXX..OO..",
"    ..@@@@@@@@@@@@@@@@@@@@@@++++  $$..++++@@@@@@++++@@@@@@@@++++",
"    ..@@@@@@@@@@@@@@@@@@@@@@++++  $$..++++@@@@@@++++@@@@@@@@++++",
"    ++++++++++##++++++++++++++##  $$++++++++++##++++++++++++++##",
"    ++++++++++##++++++++++++++##  $$++++++++++##++++++++++++++##",
"    $$$$$$$$$$$$$$$$$$$$$$$$$$$$                                ",
"    $$$$$$$$$$$$$$$$$$$$$$$$$$$$                                ",
"################################################################",
"################################################################",
"OOOOOOOOOOOOOO  ##  XXXXXXXXXXXXOOOOOOOOOOOOOO  ##  XXXXXXXXXXOO",
"OOOOOOOOOOOOOO  ##  XXXXXXXXXXXXOOOOOOOOOOOOOO  ##  XXXXXXXXXXOO",
"OOOOOOOOOOOO..  ##  OOOOXXOOOOOOOOOOOOOOOOOO..  ##  OOOOXXOOOOOO",
"OOOOOOOOOOOO..  ##  OOOOXXOOOOOOOOOOOOOOOOOO..  ##  OOOOXXOOOOOO",
"XX..OOOOOO....  ##  OOOOOOOOOOXXXX..OOOOOO....  ##  OOOOOOOOXXXX",
"XX..OOOOOO....  ##  OOOOOOOOOOXXXX..OOOOOO....  ##  OOOOOOOOXXXX",
"..........OO..  ##  OOOO....OOOO..........OO..  ##  OOOO....OO..",
"..........OO..  ##  OOOO....OOOO..........OO..  ##  OOOO....OO..",
"..@@@@@@@@##@@  ##  ##..@@@@@@@@@@++@@@@++##..  ##  ##@@##++++@@",
"..@@@@@@@@##@@  ##  ##..@@@@@@@@@@++@@@@++##..  ##  ##@@##++++@@",
"++############  ##  ####++####@@++############  ##  ####++##@@++",
"++############  ##  ####++####@@++############  ##  ####++##@@++"
};
