/* XPM */
static char *_bc13e6c0b724f6bb10a3c2a6f3a8c6eyw2BpvYMzosRB3nP[] = {
/* columns rows colors chars-per-pixel */
"32 32 68 1 ",
"  c #282828",
". c #C0C0C0",
"X c #D8D8D8",
"o c #D0D0D0",
"O c gray66",
"+ c #505050",
"@ c #484848",
"# c gray44",
"$ c gray91",
"% c #989898",
"& c #888888",
"* c gray22",
"= c #606060",
"- c gray47",
"; c gray69",
": c black",
"> c #202020",
", c #E8E800",
"< c #F87800",
"1 c #403018",
"2 c #984800",
"3 c #F8A858",
"4 c #E06800",
"5 c #F8F8F8",
"6 c #584020",
"7 c #282008",
"8 c #483818",
"9 c #A8A800",
"0 c #989800",
"q c #C86000",
"w c #B05000",
"e c #684820",
"r c #382810",
"t c #805028",
"y c #C0C000",
"u c #F8F800",
"i c #909000",
"p c #503818",
"a c #704828",
"s c #808000",
"d c #A06038",
"f c #885830",
"g c #707000",
"h c #905830",
"j c #F88820",
"k c #F89840",
"l c #B87848",
"z c #585800",
"x c gray19",
"c c #E00000",
"v c #D00000",
"b c #B80000",
"n c #680000",
"m c #600000",
"M c #400000",
"N c #E80000",
"B c #300000",
"V c #180000",
"C c #500000",
"Z c #480000",
"A c #C80000",
"S c #080000",
"D c #880000",
"F c #280000",
"G c #A00000",
"H c #980000",
"J c #E0E000",
"K c white",
/* pixels */
"                                ",
".XXoO++@#$.%$$$$$$$$&+$o@++X.&&#",
"X%%+*@&+o..+o.OOOOOO=$.o+#*+&O&#",
"X&@ @$oX+&O&&.OOOOO&-OO+%o- +&O#",
"o#*@$.OOo+&&++++++++;O+%oOO- @##",
"&* $+OOOO.+*::::::::*+%oOOO+   *",
"+ $o$+=&-**::::::::::>*&O-+Oo# *",
"+#oOO$- *:::::::::::::>>++$.OO# ",
"+;oOOO-*::::::::::::::::>&$OOO# ",
"+++&&&+:::,<1::22:::3,1:>+$.%++>",
"@$;-++*::,<21:45366:789:>*++&$o ",
"@$OOO-:::028q1:03w:7we9r:*#$.OO ",
"@$OOO=:::<81ty5u,i63pe9a>*#$OO& ",
"@o&&&+:::<8pr6,yis6d8e9f>*##+++ ",
"@+++++:::<16r7ssgg1hr29f>*#$$$o ",
"@$...+:::j16r73qq31erq9f>*#$OOO ",
"@$OOO+:::k16r7qeeq1pr3,r>*&$OO& ",
"@$OOO+:::j16r7<11<17r9l:>*%$O&& ",
"@-++++::::41r7u77077r,1:::+++++ ",
"@$$$$#:::::2rs,zz0s7r1: x@%$... ",
"@$OOO+::::::cvbbbbbn::> x+%$OO& ",
"@$OOO+:::::cbmMMMMmbn:> x+%$OO& ",
"@-++++::::cNn::BB::Mb7: *+%$O&& ",
"@$$$$#::::NcV::CC::VbZ::::+++++ ",
"@$OOO+::::cASBCCCCBSbm: x@%$..O ",
"@-++++::::ADSFFCCFFSbm: x@%$O&& ",
"@$$$$#::::GGV::BB::VbZ::::+++++ ",
"@$OOO+::::CHn::VV::CbV> x@%$..O ",
"@$&&&+:::::nHVSSFVCbC:> x@%$OO& ",
"@+++++::::16nbvcNcbC61>>>*=#+++ ",
"@$OOO+::55,,J666666Juuu;x+%$$$o ",
"@-++++:*++++++++++++++++>*=#+++ "
};
