/* XPM */
static char *_bc13e6c0b724f6bb10a3c2a6f3a8c6eyw2BpvYMzosRB3nP[] = {
/* columns rows colors chars-per-pixel */
"64 64 68 1 ",
"  c #282828",
". c #C0C0C0",
"X c #D8D8D8",
"o c #D0D0D0",
"O c gray66",
"+ c #505050",
"@ c #484848",
"# c gray44",
"$ c gray91",
"% c #989898",
"& c #888888",
"* c gray22",
"= c #606060",
"- c gray47",
"; c gray69",
": c black",
"> c #202020",
", c #E8E800",
"< c #F87800",
"1 c #403018",
"2 c #984800",
"3 c #F8A858",
"4 c #E06800",
"5 c #F8F8F8",
"6 c #584020",
"7 c #282008",
"8 c #483818",
"9 c #A8A800",
"0 c #989800",
"q c #C86000",
"w c #B05000",
"e c #684820",
"r c #382810",
"t c #805028",
"y c #C0C000",
"u c #F8F800",
"i c #909000",
"p c #503818",
"a c #704828",
"s c #808000",
"d c #A06038",
"f c #885830",
"g c #707000",
"h c #905830",
"j c #F88820",
"k c #F89840",
"l c #B87848",
"z c #585800",
"x c gray19",
"c c #E00000",
"v c #D00000",
"b c #B80000",
"n c #680000",
"m c #600000",
"M c #400000",
"N c #E80000",
"B c #300000",
"V c #180000",
"C c #500000",
"Z c #480000",
"A c #C80000",
"S c #080000",
"D c #880000",
"F c #280000",
"G c #A00000",
"H c #980000",
"J c #E0E000",
"K c white",
/* pixels */
"                                                                ",
"                                                                ",
"..XXXXooOO++++@@##$$..%%$$$$$$$$$$$$$$$$&&++$$oo@@++++XX..&&&&##",
"..XXXXooOO++++@@##$$..%%$$$$$$$$$$$$$$$$&&++$$oo@@++++XX..&&&&##",
"XX%%%%++**@@&&++oo....++oo..OOOOOOOOOOOO==$$..oo++##**++&&OO&&##",
"XX%%%%++**@@&&++oo....++oo..OOOOOOOOOOOO==$$..oo++##**++&&OO&&##",
"XX&&@@  @@$$ooXX++&&OO&&&&..OOOOOOOOOO&&--OOOO++%%oo--  ++&&OO##",
"XX&&@@  @@$$ooXX++&&OO&&&&..OOOOOOOOOO&&--OOOO++%%oo--  ++&&OO##",
"oo##**@@$$..OOOOoo++&&&&++++++++++++++++;;OO++%%ooOOOO--  @@####",
"oo##**@@$$..OOOOoo++&&&&++++++++++++++++;;OO++%%ooOOOO--  @@####",
"&&**  $$++OOOOOOOO..++**::::::::::::::::**++%%ooOOOOOO++      **",
"&&**  $$++OOOOOOOO..++**::::::::::::::::**++%%ooOOOOOO++      **",
"++  $$oo$$++==&&--****::::::::::::::::::::>>**&&OO--++OOoo##  **",
"++  $$oo$$++==&&--****::::::::::::::::::::>>**&&OO--++OOoo##  **",
"++##ooOOOO$$--  **::::::::::::::::::::::::::>>>>++++$$..OOOO##  ",
"++##ooOOOO$$--  **::::::::::::::::::::::::::>>>>++++$$..OOOO##  ",
"++;;ooOOOOOO--**::::::::::::::::::::::::::::::::>>&&$$OOOOOO##  ",
"++;;ooOOOOOO--**::::::::::::::::::::::::::::::::>>&&$$OOOOOO##  ",
"++++++&&&&&&++::::::,,<<11::::2222::::::33,,11::>>++$$..%%++++>>",
"++++++&&&&&&++::::::,,<<11::::2222::::::33,,11::>>++$$..%%++++>>",
"@@$$;;--++++**::::,,<<2211::4455336666::778899::>>**++++&&$$oo  ",
"@@$$;;--++++**::::,,<<2211::4455336666::778899::>>**++++&&$$oo  ",
"@@$$OOOOOO--::::::002288qq11::0033ww::77wwee99rr::**##$$..OOOO  ",
"@@$$OOOOOO--::::::002288qq11::0033ww::77wwee99rr::**##$$..OOOO  ",
"@@$$OOOOOO==::::::<<8811ttyy55uu,,ii6633ppee99aa>>**##$$OOOO&&  ",
"@@$$OOOOOO==::::::<<8811ttyy55uu,,ii6633ppee99aa>>**##$$OOOO&&  ",
"@@oo&&&&&&++::::::<<88pprr66,,yyiiss66dd88ee99ff>>**####++++++  ",
"@@oo&&&&&&++::::::<<88pprr66,,yyiiss66dd88ee99ff>>**####++++++  ",
"@@++++++++++::::::<<1166rr77ssssgggg11hhrr2299ff>>**##$$$$$$oo  ",
"@@++++++++++::::::<<1166rr77ssssgggg11hhrr2299ff>>**##$$$$$$oo  ",
"@@$$......++::::::jj1166rr7733qqqq3311eerrqq99ff>>**##$$OOOOOO  ",
"@@$$......++::::::jj1166rr7733qqqq3311eerrqq99ff>>**##$$OOOOOO  ",
"@@$$OOOOOO++::::::kk1166rr77qqeeeeqq11pprr33,,rr>>**&&$$OOOO&&  ",
"@@$$OOOOOO++::::::kk1166rr77qqeeeeqq11pprr33,,rr>>**&&$$OOOO&&  ",
"@@$$OOOOOO++::::::jj1166rr77<<1111<<1177rr99ll::>>**%%$$OO&&&&  ",
"@@$$OOOOOO++::::::jj1166rr77<<1111<<1177rr99ll::>>**%%$$OO&&&&  ",
"@@--++++++++::::::::4411rr77uu7777007777rr,,11::::::++++++++++  ",
"@@--++++++++::::::::4411rr77uu7777007777rr,,11::::::++++++++++  ",
"@@$$$$$$$$##::::::::::22rrss,,zzzz00ss77rr11::  xx@@%%$$......  ",
"@@$$$$$$$$##::::::::::22rrss,,zzzz00ss77rr11::  xx@@%%$$......  ",
"@@$$OOOOOO++::::::::::::ccvvbbbbbbbbbbnn::::>>  xx++%%$$OOOO&&  ",
"@@$$OOOOOO++::::::::::::ccvvbbbbbbbbbbnn::::>>  xx++%%$$OOOO&&  ",
"@@$$OOOOOO++::::::::::ccbbmmMMMMMMMMmmbbnn::>>  xx++%%$$OOOO&&  ",
"@@$$OOOOOO++::::::::::ccbbmmMMMMMMMMmmbbnn::>>  xx++%%$$OOOO&&  ",
"@@--++++++++::::::::ccNNnn::::BBBB::::MMbb77::  **++%%$$OO&&&&  ",
"@@--++++++++::::::::ccNNnn::::BBBB::::MMbb77::  **++%%$$OO&&&&  ",
"@@$$$$$$$$##::::::::NNccVV::::CCCC::::VVbbZZ::::::::++++++++++  ",
"@@$$$$$$$$##::::::::NNccVV::::CCCC::::VVbbZZ::::::::++++++++++  ",
"@@$$OOOOOO++::::::::ccAASSBBCCCCCCCCBBSSbbmm::  xx@@%%$$....OO  ",
"@@$$OOOOOO++::::::::ccAASSBBCCCCCCCCBBSSbbmm::  xx@@%%$$....OO  ",
"@@--++++++++::::::::AADDSSFFFFCCCCFFFFSSbbmm::  xx@@%%$$OO&&&&  ",
"@@--++++++++::::::::AADDSSFFFFCCCCFFFFSSbbmm::  xx@@%%$$OO&&&&  ",
"@@$$$$$$$$##::::::::GGGGVV::::BBBB::::VVbbZZ::::::::++++++++++  ",
"@@$$$$$$$$##::::::::GGGGVV::::BBBB::::VVbbZZ::::::::++++++++++  ",
"@@$$OOOOOO++::::::::CCHHnn::::VVVV::::CCbbVV>>  xx@@%%$$....OO  ",
"@@$$OOOOOO++::::::::CCHHnn::::VVVV::::CCbbVV>>  xx@@%%$$....OO  ",
"@@$$&&&&&&++::::::::::nnHHVVSSSSFFVVCCbbCC::>>  xx@@%%$$OOOO&&  ",
"@@$$&&&&&&++::::::::::nnHHVVSSSSFFVVCCbbCC::>>  xx@@%%$$OOOO&&  ",
"@@++++++++++::::::::1166nnbbvvccNNccbbCC6611>>>>>>**==##++++++  ",
"@@++++++++++::::::::1166nnbbvvccNNccbbCC6611>>>>>>**==##++++++  ",
"@@$$OOOOOO++::::5555,,,,JJ666666666666JJuuuuuu;;xx++%%$$$$$$oo  ",
"@@$$OOOOOO++::::5555,,,,JJ666666666666JJuuuuuu;;xx++%%$$$$$$oo  ",
"@@--++++++++::**++++++++++++++++++++++++++++++++>>**==##++++++  ",
"@@--++++++++::**++++++++++++++++++++++++++++++++>>**==##++++++  "
};
