/* XPM */
static char *b4332721200d4130fc22fd090a8faa68zuVhVkpnpYOMdCqx[] = {
/* columns rows colors chars-per-pixel */
"64 64 8 1 ",
"  c None",
". c #171605",
"X c #1F1D06",
"o c #252208",
"O c #282608",
"+ c #DAD060",
"@ c #E6DC76",
"# c #EFE9A7",
/* pixels */
"++++++++++++++++++++++++++++++++++++++++++++++++++++++++++++++++",
"++++++++++++++++++++++++++++++++++++++++++++++++++++++++++++++++",
"@@############################################################@@",
"@@############################################################@@",
"@@############################################################@@",
"@@############################################################@@",
"@@############################################################@@",
"@@############################################################@@",
"@@####@@@@@@@@@@@@@@@@@@@@@@@@@@@@@@@@@@@@@@@@@@@@@@@@@@@@####@@",
"@@####@@@@@@@@@@@@@@@@@@@@@@@@@@@@@@@@@@@@@@@@@@@@@@@@@@@@####@@",
"@@####@@OOOOOOOOOOOOOOOOOOOOOOOOOOOOOOOOOOOOOOOOOOOOOOOO@@####@@",
"@@####@@OOOOOOOOOOOOOOOOOOOOOOOOOOOOOOOOOOOOOOOOOOOOOOOO@@####@@",
"@@####@@OOOOOOooooooooooooooooooooooooooooooooooooOOOOOO@@####@@",
"@@####@@OOOOOOooooooooooooooooooooooooooooooooooooOOOOOO@@####@@",
"@@####@@OOOOooooooXXXXXXXXXXXXXXXXXXXXXXXXXXXXooooooOOOO@@####@@",
"@@####@@OOOOooooooXXXXXXXXXXXXXXXXXXXXXXXXXXXXooooooOOOO@@####@@",
"@@####@@OOOOooooXXXXXX....................XXXXXXooooOOOO@@####@@",
"@@####@@OOOOooooXXXXXX....................XXXXXXooooOOOO@@####@@",
"@@####@@OOOOooooXXXX........................XXXXooooOOOO@@####@@",
"@@####@@OOOOooooXXXX........................XXXXooooOOOO@@####@@",
"@@####@@OOOOooooXXXX........................XXXXooooOOOO@@####@@",
"@@####@@OOOOooooXXXX........................XXXXooooOOOO@@####@@",
"@@####@@OOOOooooXXXX........................XXXXooooOOOO@@####@@",
"@@####@@OOOOooooXXXX........................XXXXooooOOOO@@####@@",
"@@####@@OOOOooooXXXX........................XXXXooooOOOO@@####@@",
"@@####@@OOOOooooXXXX........................XXXXooooOOOO@@####@@",
"@@####@@OOOOooooXXXX........................XXXXooooOOOO@@####@@",
"@@####@@OOOOooooXXXX........................XXXXooooOOOO@@####@@",
"@@####@@OOOOooooXXXX........................XXXXooooOOOO@@####@@",
"@@####@@OOOOooooXXXX........................XXXXooooOOOO@@####@@",
"@@####@@OOOOooooXXXX........................XXXXooooOOOO@@####@@",
"@@####@@OOOOooooXXXX........................XXXXooooOOOO@@####@@",
"@@####@@OOOOooooXXXX........................XXXXooooOOOO@@####@@",
"@@####@@OOOOooooXXXX........................XXXXooooOOOO@@####@@",
"@@####@@OOOOooooXXXX........................XXXXooooOOOO@@####@@",
"@@####@@OOOOooooXXXX........................XXXXooooOOOO@@####@@",
"@@####@@OOOOooooXXXX........................XXXXooooOOOO@@####@@",
"@@####@@OOOOooooXXXX........................XXXXooooOOOO@@####@@",
"@@####@@OOOOooooXXXXXX....................XXXXXXooooOOOO@@####@@",
"@@####@@OOOOooooXXXXXX....................XXXXXXooooOOOO@@####@@",
"@@####@@OOOOooooXXXXXXXXXXXXXXXXXXXXXXXXXXXXXXXXooooOOOO@@####@@",
"@@####@@OOOOooooXXXXXXXXXXXXXXXXXXXXXXXXXXXXXXXXooooOOOO@@####@@",
"@@####@@OOOOooooooXXXXXXXXXXXXXXXXXXXXXXXXXXXXooooooOOOO@@####@@",
"@@####@@OOOOooooooXXXXXXXXXXXXXXXXXXXXXXXXXXXXooooooOOOO@@####@@",
"@@####@@OOOOOOooooooooooooooooooooooooooooooooooooOOOOOO@@####@@",
"@@####@@OOOOOOooooooooooooooooooooooooooooooooooooOOOOOO@@####@@",
"@@####@@OOOOOOOOooooooooooooooooooooooooooooooooOOOOOOOO@@####@@",
"@@####@@OOOOOOOOooooooooooooooooooooooooooooooooOOOOOOOO@@####@@",
"@@####@@OOOOOOOOOOOOOOOOOOOOOOOOOOOOOOOOOOOOOOOOOOOOOOOO@@####@@",
"@@####@@OOOOOOOOOOOOOOOOOOOOOOOOOOOOOOOOOOOOOOOOOOOOOOOO@@####@@",
"@@####@@OOOOOOOOOOOOOOOOOOOOOOOOOOOOOOOOOOOOOOOOOOOOOOOO@@####@@",
"@@####@@OOOOOOOOOOOOOOOOOOOOOOOOOOOOOOOOOOOOOOOOOOOOOOOO@@####@@",
"@@############################################################@@",
"@@############################################################@@",
"@@############################################################@@",
"@@############################################################@@",
"@@############################################################@@",
"@@############################################################@@",
"@@############################################################@@",
"@@############################################################@@",
"@@@@@@@@@@@@@@@@@@@@@@@@@@@@@@@@@@@@@@@@@@@@@@@@@@@@@@@@@@@@@@@@",
"@@@@@@@@@@@@@@@@@@@@@@@@@@@@@@@@@@@@@@@@@@@@@@@@@@@@@@@@@@@@@@@@",
"++++++++++++++++++++++++++++++++++++++++++++++++++++++++++++++++",
"++++++++++++++++++++++++++++++++++++++++++++++++++++++++++++++++"
};
