/* XPM */
static char *b0fce1fde3e84556c460926f0994abf7YPRClgACDjc8n9Sg[] = {
/* columns rows colors chars-per-pixel */
"64 64 10 1 ",
"  c None",
". c #271920",
"X c #39252F",
"o c #494A40",
"O c #802211",
"+ c #99423C",
"@ c #CC8665",
"# c #E4A47C",
"$ c #F9D5BA",
"% c #FAECE7",
/* pixels */
"                                                                ",
"                                                                ",
"                                                                ",
"                                                                ",
"                                                                ",
"                                                                ",
"                                                                ",
"                                                                ",
"                                                                ",
"                                                                ",
"                                                                ",
"                                                                ",
"                                                                ",
"                                                                ",
"                                                                ",
"                                                                ",
"                                                                ",
"                           ..........                           ",
"                         ..+@#$$$##@+..                         ",
"                        .+#$$$$$$$$##@+.                        ",
"                       .+#$$$$$$$$$$$##+.                       ",
"                       .#$$%%%$$$$$$$$#@.                       ",
"                      .+$$$%%%$$$$$$$$##+.                      ",
"                      .@$$$%%%$$$$$$$$$#@.                      ",
"                      .#$$$$$$$$$$$$$$$##.                      ",
"                      .#$$$$$$$$$$$$$$$##.                      ",
"                      .#$$$@@$$$$$$@$$$##.                      ",
"                      .@$$$@o@$$$$@o@$$#@.                      ",
"                     .+@#$@ooo@$@@ooo@##@+.                     ",
"                     .$@##ooOoo@@ooOoo@#@$.                     ",
"                     .$@##ooOoo@@ooOoo@@#$.                     ",
"                     .$$@#oooo@$$@oooo@@$$.                     ",
"                      .$@#@@o@$XX$@o@@#@$..                     ",
"                       ..#$@@$X..X$@@$#..                       ",
"                     ....@$$@X....X$@$@....                     ",
"                    .+##@+#$$@X..X@$$#+@##+.                    ",
"                   .+%%%$#++#$@XX@$#++#$%%%+.                   ",
"                   .#%%%$$##+++@@+++##$$%%%#.                   ",
"                  .@$%%$$$$##########$$$$%%$@.                  ",
"                  .@$$$$$$$$########$$$$$$$$@.                  ",
"                  .@##@##$$$$$$$$$$$$$$##@##@.                  ",
"                 .+##@+@#$$$$$$$$$$$$$$#@+@##+.                 ",
"                 .####++##$$$$$$$$$$$$##++####.                 ",
"                 .%$#@..@#$%$$$$$$$$%$#@..@#$%.                 ",
"                 .%$#. .+@#$%%$$$$%%$#@+. .#$%.                 ",
"                 .%%#.  .@@@#$$$$$$#@@@.  .#%%.                 ",
"                 .$$@.. .###$$%%%%$$###+ ..@$$.                 ",
"                 .#$$#..+###$%%$$%%$###+..#$$#.                 ",
"                 .#%$$$.+####$$$$$$####+.$$$%#.                 ",
"                 .@$$+$.##@###$$$$###@##.$+$$@.                 ",
"                 .+$$++.##@@########@@##.++$$+.                 ",
"                  .@$##.$$#@+@####@+@#$$.##$@.                  ",
"                   ....@$$$##+....+##$$$@....                   ",
"                      .@$$##+.    .+##$$@.                      ",
"                      .@$$#@.      .@#$$@.                      ",
"                      .@###+.      .+###@.                      ",
"                      .+@##.        .##@+.                      ",
"                      .+##@.        .@##+.                      ",
"                     .@####+.      .+####@.                     ",
"                     .#$$$#@.      .@#$$$#.                     ",
"                    .@$$$$$#.      .#$$$$$@.                    ",
"                    .$$$$$$#.      .#$$$$$$.                    ",
"                    .#$%@%%.        .%%@%$#.                    ",
"                     ......          ......                     "
};
































































